# xmcd CD database file
#
# Track frame offsets:
#	150
#	26833
#	48751
#	74218
#	106114
#	137003
#	161097
#	181042
#	198755
#	216433
#	235315
#	255728
#	282509
#
# Disc length: 4145 seconds
#
# Revision: 0
# Processed by: cddbd v1.5PL3 Copyright (c) Steve Scherf et al.
# Submitted via: CDex 1.51
#
DISCID=c1102f0d
DTITLE=Dick Hyman, Derek Smith and Ralph Sutton - The Piano Giants at Bob Haggart's 80th Birthday Party
DYEAR=2002
DGENRE=Jazz
TTITLE0=Love For Sale
TTITLE1=Sunday
TTITLE2=In a Mist
TTITLE3=Tea For Two
TTITLE4=I'm Through With Love
TTITLE5=It Could Happen to You
TTITLE6=Honeysuckle Rose
TTITLE7=A Nightingale Sang in Berkeley Square
TTITLE8=Alligator Crawl
TTITLE9=Somebody Stole My Gal
TTITLE10=Fascinating Rhythm
TTITLE11=Sleep
TTITLE12=The Jitterbug Waltz
EXTD=YEAR: 2002
EXTT0=
EXTT1=
EXTT2=
EXTT3=
EXTT4=
EXTT5=
EXTT6=
EXTT7=
EXTT8=
EXTT9=
EXTT10=
EXTT11=
EXTT12=
PLAYORDER=
